# xmcd
#
# Track frame offsets:
#	150
#	23181
#	42687
#
# Disc length: 742 seconds
#
# Revision: 0
# Processed by: cddbd v1.5.2PL0 Copyright (c) Steve Scherf et al.
# Submitted via: audiograbber 1.83.01
#
DISCID=2202e403
DTITLE=Various Artist - CDX 5
DYEAR=1991
DGENRE=Country
TTITLE0=Reba McEntire - Fallin' Out Of Love
TTITLE1=Paul Ott and Dan Tyler - I Am The River
TTITLE2=Vince Gill - Liza Jane
EXTD=
EXTT0=
EXTT1=
EXTT2=
PLAYORDER=
